<svg width="47" height="45" viewBox="0 0 47 45" fill="none" xmlns="http://www.w3.org/2000/svg">
<path opacity="0.5" d="M46.1426 0.300079L34.8502 40.9025C34.7928 41.0868 34.5631 41.1421 34.4291 41.0131L26.8689 33.7331L32.5343 13.3857C32.5917 13.2014 32.4195 13.0356 32.2281 13.0909L11.0978 18.5463L3.57595 11.3031C3.44197 11.1741 3.49939 10.9529 3.69078 10.8976L45.8364 0.00519027C46.0278 -0.0316708 46.2 0.134204 46.1426 0.300079Z" fill="#00B37E"/>
<path opacity="0.5" d="M26.8686 33.7327L23.9593 44.2381C23.9019 44.4224 23.6723 44.4776 23.5383 44.3486L0.0730174 21.7712C-0.0609604 21.6422 -0.00354165 21.4211 0.187855 21.3658L11.0975 18.5459L26.8686 33.7327Z" fill="#00B37E"/>
<path d="M32.5334 13.3853L26.868 33.7326L11.0969 18.5459L32.2271 13.0905C32.4185 13.0352 32.5908 13.201 32.5334 13.3853Z" fill="#00B37E"/>
</svg>
